# xmcd
#
# Track frame offsets:
#	150
#	16619
#	29991
#	42969
#	66002
#	86413
#	106167
#	121395
#	133369
#	160281
#	189428
#	207167
#	225031
#	241858
#	258645
#	278064
#	303074
#	333935
#
# Disc length: 4622 seconds
#
# Revision: 1
# Processed by: cddbd v1.4PL0 Copyright (c) Steve Scherf et al.
# Submitted via: CDmax 2.0
#
DISCID=ea120c12
DTITLE=Rob Tognoni - Live In Sweden 2003
DYEAR=2003
DGENRE=Blues
TTITLE0=Baby Please Don't Go
TTITLE1=Bad Girl
TTITLE2=Black Chair
TTITLE3=Comin' Home At Last
TTITLE4=Dark Angel
TTITLE5=Dirty Occupation
TTITLE6=4 Seasons
TTITLE7=Guitar Boogie Refried
TTITLE8=Roosevelt and Ira Lee
TTITLE9=Product Of A Southern Land
TTITLE10=Itty Bitty Mama
TTITLE11=The Sinner
TTITLE12=Drink Jack Boogie
TTITLE13=Keep Your Head Above Water
TTITLE14=My Acid Is Kickin' In
TTITLE15=Jim Beam Blues
TTITLE16=Crossword Blues 2003
TTITLE17=Keep Your Hands To Yourself
EXTD=
EXTT0=
EXTT1=
EXTT2=
EXTT3=
EXTT4=
EXTT5=
EXTT6=
EXTT7=
EXTT8=
EXTT9=
EXTT10=
EXTT11=
EXTT12=
EXTT13=
EXTT14=
EXTT15=
EXTT16=
EXTT17=
PLAYORDER=
